<mxfile host="app.diagrams.net" modified="2021-09-06T05:33:49.617Z" agent="5.0 (Macintosh; Intel Mac OS X 10_15_7) AppleWebKit/537.36 (KHTML, like Gecko) Chrome/92.0.4515.159 Safari/537.36" etag="EWsLhQeGbPUJNWIz5WQb" version="14.7.6" type="github" pages="2">
  <diagram id="nXmKqqzhzPZGd1cpE922" name="account screen">
    <mxGraphModel dx="1638" dy="918" grid="1" gridSize="10" guides="1" tooltips="1" connect="1" arrows="1" fold="1" page="1" pageScale="1" pageWidth="850" pageHeight="1100" math="0" shadow="0">
      <root>
        <mxCell id="0" />
        <mxCell id="1" parent="0" />
        <mxCell id="FdsUWTL0aCbLL7QPAs_v-1" value="&lt;meta charset=&quot;utf-8&quot;&gt;&lt;b style=&quot;font-weight: normal&quot; id=&quot;docs-internal-guid-f7762070-7fff-9e3e-ec08-fd0ef206ed2e&quot;&gt;&lt;span style=&quot;font-size: 11pt; font-family: arial; color: rgb(0, 0, 0); background-color: transparent; font-weight: 400; font-style: normal; font-variant: normal; text-decoration: none; vertical-align: baseline;&quot;&gt;&lt;span style=&quot;border: none ; display: inline-block ; overflow: hidden ; width: 215px ; height: 466px&quot;&gt;&lt;img src=&quot;https://lh4.googleusercontent.com/-cccm3AxDRERcc6cLQfBtVID6Y94riGP8_eoDJT-YnRfjIxbCnrtwyfKQE0CWgmJKZqfnfEOKhZ7lFZOnOhLqWs7obWtFPmoGtGGzAs9NgPWQEF2o_-I42RnschCvy68gcj27FXE=s0&quot; width=&quot;215&quot; height=&quot;466&quot; style=&quot;margin-left: 0px ; margin-top: 0px&quot;&gt;&lt;/span&gt;&lt;/span&gt;&lt;/b&gt;" style="text;whiteSpace=wrap;html=1;" vertex="1" parent="1">
          <mxGeometry x="151" y="220" width="240" height="480" as="geometry" />
        </mxCell>
        <mxCell id="1m8GYiv-UVFfivWW60lX-1" value="&lt;meta charset=&quot;utf-8&quot;&gt;&lt;b style=&quot;font-weight: normal&quot; id=&quot;docs-internal-guid-f7762070-7fff-9e3e-ec08-fd0ef206ed2e&quot;&gt;&lt;span style=&quot;font-size: 11pt; font-family: arial; color: rgb(0, 0, 0); background-color: transparent; font-weight: 400; font-style: normal; font-variant: normal; text-decoration: none; vertical-align: baseline;&quot;&gt;&lt;span style=&quot;border: none ; display: inline-block ; overflow: hidden ; width: 215px ; height: 466px&quot;&gt;&lt;img src=&quot;https://lh4.googleusercontent.com/-cccm3AxDRERcc6cLQfBtVID6Y94riGP8_eoDJT-YnRfjIxbCnrtwyfKQE0CWgmJKZqfnfEOKhZ7lFZOnOhLqWs7obWtFPmoGtGGzAs9NgPWQEF2o_-I42RnschCvy68gcj27FXE=s0&quot; width=&quot;215&quot; height=&quot;466&quot; style=&quot;margin-left: 0px ; margin-top: 0px&quot;&gt;&lt;/span&gt;&lt;/span&gt;&lt;/b&gt;" style="text;whiteSpace=wrap;html=1;" vertex="1" parent="1">
          <mxGeometry x="490" y="210" width="240" height="480" as="geometry" />
        </mxCell>
        <mxCell id="1m8GYiv-UVFfivWW60lX-2" value="&lt;meta charset=&quot;utf-8&quot;&gt;&lt;b style=&quot;font-weight: normal&quot; id=&quot;docs-internal-guid-f7762070-7fff-9e3e-ec08-fd0ef206ed2e&quot;&gt;&lt;span style=&quot;font-size: 11pt; font-family: arial; color: rgb(0, 0, 0); background-color: transparent; font-weight: 400; font-style: normal; font-variant: normal; text-decoration: none; vertical-align: baseline;&quot;&gt;&lt;span style=&quot;border: none ; display: inline-block ; overflow: hidden ; width: 215px ; height: 466px&quot;&gt;&lt;img src=&quot;https://lh4.googleusercontent.com/-cccm3AxDRERcc6cLQfBtVID6Y94riGP8_eoDJT-YnRfjIxbCnrtwyfKQE0CWgmJKZqfnfEOKhZ7lFZOnOhLqWs7obWtFPmoGtGGzAs9NgPWQEF2o_-I42RnschCvy68gcj27FXE=s0&quot; width=&quot;215&quot; height=&quot;466&quot; style=&quot;margin-left: 0px ; margin-top: 0px&quot;&gt;&lt;/span&gt;&lt;/span&gt;&lt;/b&gt;" style="text;whiteSpace=wrap;html=1;" vertex="1" parent="1">
          <mxGeometry x="870" y="230" width="240" height="480" as="geometry" />
        </mxCell>
        <mxCell id="1m8GYiv-UVFfivWW60lX-3" value="&lt;meta charset=&quot;utf-8&quot;&gt;&lt;b style=&quot;font-weight: normal&quot; id=&quot;docs-internal-guid-f7762070-7fff-9e3e-ec08-fd0ef206ed2e&quot;&gt;&lt;span style=&quot;font-size: 11pt; font-family: arial; color: rgb(0, 0, 0); background-color: transparent; font-weight: 400; font-style: normal; font-variant: normal; text-decoration: none; vertical-align: baseline;&quot;&gt;&lt;span style=&quot;border: none ; display: inline-block ; overflow: hidden ; width: 215px ; height: 466px&quot;&gt;&lt;img src=&quot;https://lh4.googleusercontent.com/-cccm3AxDRERcc6cLQfBtVID6Y94riGP8_eoDJT-YnRfjIxbCnrtwyfKQE0CWgmJKZqfnfEOKhZ7lFZOnOhLqWs7obWtFPmoGtGGzAs9NgPWQEF2o_-I42RnschCvy68gcj27FXE=s0&quot; width=&quot;215&quot; height=&quot;466&quot; style=&quot;margin-left: 0px ; margin-top: 0px&quot;&gt;&lt;/span&gt;&lt;/span&gt;&lt;/b&gt;" style="text;whiteSpace=wrap;html=1;" vertex="1" parent="1">
          <mxGeometry x="1330" y="210" width="240" height="480" as="geometry" />
        </mxCell>
        <mxCell id="1m8GYiv-UVFfivWW60lX-4" value="" style="endArrow=none;html=1;" edge="1" parent="1" source="1m8GYiv-UVFfivWW60lX-1">
          <mxGeometry width="50" height="50" relative="1" as="geometry">
            <mxPoint x="780" y="510" as="sourcePoint" />
            <mxPoint x="830" y="460" as="targetPoint" />
          </mxGeometry>
        </mxCell>
        <mxCell id="1m8GYiv-UVFfivWW60lX-5" value="&lt;span style=&quot;background-color: rgb(255 , 48 , 48)&quot;&gt;coins&lt;/span&gt;" style="text;html=1;strokeColor=none;fillColor=none;align=center;verticalAlign=middle;whiteSpace=wrap;rounded=0;" vertex="1" parent="1">
          <mxGeometry x="660" y="280" width="40" height="20" as="geometry" />
        </mxCell>
      </root>
    </mxGraphModel>
  </diagram>
  <diagram id="kE2Mjmj3EXFVyCJvCP2i" name="Page-2">
    <mxGraphModel dx="983" dy="551" grid="1" gridSize="10" guides="1" tooltips="1" connect="1" arrows="1" fold="1" page="1" pageScale="1" pageWidth="850" pageHeight="1100" math="0" shadow="0">
      <root>
        <mxCell id="lCT1Hrnv88SreLpNBZTd-0" />
        <mxCell id="lCT1Hrnv88SreLpNBZTd-1" parent="lCT1Hrnv88SreLpNBZTd-0" />
      </root>
    </mxGraphModel>
  </diagram>
</mxfile>
